<?xml version="1.0" encoding="utf-8"?>
<!-- Generator: Adobe Illustrator 27.0.0, SVG Export Plug-In . SVG Version: 6.00 Build 0)  -->
<svg
  version="1.1"
  id="LOGO"
  xmlns="http://www.w3.org/2000/svg"
  xmlns:xlink="http://www.w3.org/1999/xlink"
  x="0px"
  y="0px"
  viewBox="0 0 725.10797 87.63567"
  style="enable-background: new 0 0 725.10797 87.63567"
  xml:space="preserve"
  fill="hsl(0, 0%, 10%)"
>
  <g>
    <path
      d="M6.40445,9.12497h27.50879c6.19434,0,11.53809,0.75928,16.03076,2.27686c4.49121,1.51855,8.31738,3.60986,11.47754,6.27295
		c3.65479,3.09863,6.41211,6.81592,8.271,11.15186c1.8584,4.3374,2.88086,8.81446,3.06689,13.4292
		c0.18555,4.61621-0.4502,9.15381-1.90527,13.61475c-1.45654,4.46045-3.70264,8.3335-6.73779,11.6167
		c-3.15967,3.22217-7.06299,5.85449-11.70947,7.89941c-4.64697,2.04443-10.37793,3.19141-17.19287,3.43848H32.798H6.40445V64.88474
		H32.798h1.8584c4.77002-0.12305,8.73584-0.81885,11.89551-2.08643c3.15967-1.26611,5.66895-2.88965,7.52783-4.86719
		c1.8584-2.04053,3.17432-4.4043,3.94971-7.09375c0.77393-2.68896,1.08301-5.4248,0.9292-8.20703
		c-0.15527-2.78223-0.79004-5.43945-1.90527-7.9751c-1.11523-2.53369-2.63379-4.66699-4.55371-6.39795
		c-1.8584-1.66846-4.30664-2.98242-7.3418-3.94092c-3.03613-0.95801-6.78418-1.4375-11.24463-1.4375H6.40445V9.12497z"
    />
    <path
      d="M130.83218,66.55759c-0.93506,2.60254-2.26123,4.81836-3.97607,6.64502c-1.71631,1.82812-3.84912,3.23828-6.40234,4.22852
		c-2.55273,0.9917-5.50195,1.48682-8.84717,1.48682H73.03873V64.978h38.56787c1.91943,0,3.56201-0.6958,4.92529-2.08691
		c1.36182-1.39111,2.04443-3.07666,2.04443-5.05762V9.12497h0.1875h13.75244v48.79004
		C132.32925,61.07468,131.76724,63.95554,130.83218,66.55759z"
    />
    <path
      d="M134.2814,78.91794l25.83545-54.73779c1.61035-3.3457,3.65479-6.13379,6.1333-8.36426
		c2.47754-2.23047,5.17236-3.90332,8.08545-5.01855c2.91162-1.11475,5.91602-1.68701,9.01465-1.71924
		c3.09717-0.03027,6.08691,0.51123,8.96826,1.62646c2.88086,1.11523,5.55957,2.8042,8.03857,5.06494
		c2.47705,2.26221,4.55371,5.06494,6.22656,8.41064l25.92822,54.73779h-15.51953L194.13052,30.1279
		c-1.30127-2.4165-2.92725-4.22852-4.87891-5.43652c-1.95166-1.2085-3.94971-1.8125-5.99414-1.8125
		c-2.04492,0-4.01221,0.604-5.90137,1.8125c-1.89062,1.20801-3.45459,3.02002-4.69336,5.43652l-23.14062,48.79004H134.2814z"
    />
    <path
      d="M287.15689,55.87057c0.99023,2.10693,1.98193,3.65625,2.97363,4.64648c0.99023,0.9917,1.87305,1.36377,2.64893,1.11523
		c0.77393-0.24707,1.39355-1.17627,1.8584-2.78809c0.46484-1.61035,0.66504-3.99609,0.604-7.15576L295.0563,8.56735h13.75391
		c0,2.04443,0,4.64648,0,7.80615s0,6.50537,0,10.03711c0,3.53125,0,7.06299,0,10.59424s0,6.72314,0,9.57227
		c0,2.85059-0.03174,6.07275-0.09277,9.66504c0.18555,3.59375-0.0625,6.78418-0.74365,9.57227
		c-0.68262,2.78809-1.70459,5.14307-3.06689,7.06299c-1.36328,1.9209-2.97363,3.39209-4.83252,4.41406
		c-1.8584,1.02246-3.87256,1.53369-6.04053,1.53369c-2.4165,0.0625-4.56982-0.33984-6.45898-1.2085
		c-1.89062-0.8667-3.65625-2.18359-5.29736-3.94971c-1.64209-1.76562-3.23779-3.97998-4.78564-6.64453
		c-1.5498-2.66309-3.16016-5.72998-4.83301-9.2002c-1.67236-3.77881-3.29883-7.54248-4.87891-11.2915
		c-1.57959-3.74805-3.17578-7.38818-4.78613-10.91992c-1.0542-2.2915-2.18359-4.2749-3.39209-5.94776
		c-1.20801-1.67285-2.32324-2.6792-3.34521-3.02051c-1.02246-0.33936-1.85889,0.15576-2.50928,1.4873
		c-0.65088,1.33301-0.91504,3.85645-0.79004,7.57373l0.09277,43.21436h-13.84717V31.14987
		c-0.12451-3.65479,0.18604-6.90723,0.92969-9.75781c0.74316-2.84912,1.78027-5.25098,3.11328-7.20264
		c1.33154-1.95117,2.92725-3.40625,4.78613-4.36768c1.8584-0.95996,3.87109-1.37793,6.04053-1.25439
		c3.96436,0.31055,7.69727,2.12256,11.19824,5.43652c3.49951,3.31494,6.8916,8.50342,10.17627,15.56641L287.15689,55.87057z"
    />
    <path
      d="M354.43912,7.8237c4.1499,0,8.14648,0.69678,11.98828,2.09082c3.84082,1.39404,7.3418,3.29932,10.50146,5.71582
		c3.16016,2.41601,5.85498,5.28271,8.08545,8.59619c2.23047,3.31494,3.87109,6.8623,4.92529,10.64063h-14.86914
		c-1.92139-4.12061-4.75586-7.33594-8.50342-9.64307c-3.74951-2.30615-7.79199-3.46045-12.12793-3.46045
		c-3.15967,0-6.11914,0.604-8.875,1.80957c-2.75781,1.20508-5.1582,2.8125-7.20264,4.82227s-3.64014,4.32715-4.78613,6.95557
		c-1.14697,2.62793-1.71924,5.39453-1.71924,8.29834c0,3.1543,0.57227,6.07568,1.71924,8.76514
		c1.146,2.68896,2.70996,5.02246,4.69336,7.00049c1.98193,2.10254,4.38232,3.69531,7.20215,4.77734
		c2.81885,1.08154,5.80859,1.62207,8.96826,1.62207s6.21045-0.43262,9.15381-1.30127
		c2.94189-0.8667,5.46729-2.32324,7.57422-4.36768c1.05273-0.99023,1.90527-1.95166,2.55566-2.88086
		c0.65039-0.92969,0.97607-1.73389,0.97607-2.4165c0-0.68115-0.40381-1.23877-1.2085-1.67285
		c-0.80566-0.43262-2.13721-0.65039-3.99609-0.65039l-18.67969-0.27881l0.18604-13.75439l18.67969,0.27881
		c3.40674,0.0625,6.24121,0.49658,8.50342,1.30127c2.26074,0.80566,4.10352,1.82812,5.5293,3.06689
		c1.4248,1.23975,2.49365,2.5874,3.20654,4.04248c0.71143,1.45654,1.22266,2.78809,1.5332,3.99609
		c0.30957,1.20801,0.46484,2.64844,0.46484,4.32129l-0.18604,23.60547h-14.03271v-5.4834
		c-2.91309,1.98389-6.07275,3.50098-9.47949,4.55371c-3.4082,1.05273-7.00195,1.58008-10.78027,1.58008
		c-5.08105,0-9.82031-0.9292-14.21875-2.78809c-4.3999-1.8584-8.20312-4.39844-11.41064-7.62061
		c-3.38623-3.3457-6.04785-7.20215-7.98633-11.57031c-1.93848-4.36768-2.90723-9.09131-2.90723-14.17236
		c0-5.01807,1.01514-9.71143,3.04639-14.0791c2.03027-4.36816,4.74121-8.14648,8.13184-11.33789
		c3.38916-3.19043,7.28369-5.71582,11.68359-7.57422C345.17642,8.7529,349.73013,7.8237,354.43912,7.8237z"
    />
    <path
      d="M469.58267,9.12497v35.31445c0,5.82422-1.02197,10.91992-3.06641,15.2876
		c-2.04492,4.36816-4.7251,7.97803-8.03906,10.82666c-3.31494,2.85059-7.09473,4.98828-11.33789,6.4126
		c-4.24414,1.42578-8.58154,2.10547-13.01074,2.04443c-4.43018-0.0625-8.76758-0.82031-13.01074-2.27686
		c-4.24414-1.45508-8.02393-3.63867-11.33789-6.55176c-3.31494-2.91113-5.99414-6.50537-8.03857-10.78027
		s-3.06689-9.26123-3.06689-14.9624V9.12497h13.93994v35.31445c0,4.77148,1.06592,8.73584,3.19922,11.89551
		c2.13135,3.15967,4.79053,5.51514,7.97461,7.06299c3.18311,1.54932,6.63037,2.29297,10.34033,2.23047
		c3.70898-0.06104,7.15625-0.89746,10.34033-2.50928c3.18311-1.61035,5.8418-3.97998,7.9751-7.10938
		c2.13135-3.12793,3.19873-6.98438,3.19873-11.57031V9.12497H469.58267z"
    />
    <path
      d="M479.0607,9.12497h13.84717h0.09277v48.7085c0,1.98096,0.66504,3.6665,1.99805,5.05762
		c1.33154,1.39111,2.98828,2.08691,4.97217,2.08691h38.66013v13.93994h-38.66013c-3.4082,0-6.38916-0.49512-8.94238-1.48682
		c-2.55273-0.99023-4.70312-2.40039-6.44873-4.22852c-1.74658-1.82666-3.07227-4.04248-3.97559-6.64502
		c-0.90479-2.60205-1.41895-5.48291-1.54346-8.64258V9.12497z"
    />
    <path
      d="M544.1134,78.91794l25.83545-54.73779c1.60938-3.3457,3.6543-6.13379,6.13281-8.36426s5.17383-3.90332,8.08594-5.01855
		c2.91211-1.11475,5.91602-1.68701,9.01367-1.71924c3.09766-0.03027,6.08789,0.51123,8.96875,1.62646
		s5.56055,2.8042,8.03906,5.06494c2.47656,2.26221,4.55273,5.06494,6.22656,8.41064l25.92773,54.73779h-15.51953L603.96252,30.1279
		c-1.30078-2.4165-2.92773-4.22852-4.87891-5.43652c-1.95117-1.2085-3.94922-1.8125-5.99414-1.8125s-4.01172,0.604-5.90234,1.8125
		c-1.89062,1.20801-3.45312,3.02002-4.69141,5.43652L559.3551,78.91794H544.1134z"
    />
    <path
      d="M694.63831,9.12497c3.66113,0,6.8252,0.68213,9.49414,2.04443c2.66797,1.36328,4.83887,3.14502,6.51367,5.34375
		c1.6748,2.19971,2.86816,4.67822,3.58105,7.43457c0.71191,2.75732,0.94434,5.51514,0.69727,8.271
		c-0.24805,2.75781-0.99219,5.42236-2.23145,7.99219c-1.24023,2.57178-2.97754,4.7251-5.21094,6.45898
		c1.6748,2.35547,2.91504,4.87891,3.72168,7.57422c0.80762,2.69482,1.24219,5.46875,1.30469,8.31738v16.35645h-13.94043V62.56149
		c0-0.8667-0.1875-1.93555-0.55859-3.20605c-0.37305-1.26904-1.01074-2.49316-1.91113-3.6709
		c-0.90039-1.17627-2.09668-2.21436-3.58691-3.11328c-1.49121-0.89746-3.32324-1.44043-5.49609-1.62646h-17.98242
		c-1.92578,0-3.57227,0.68262-4.93848,2.04443c-1.36621,1.36377-2.04883,3.00586-2.04883,4.92578v21.00293h-13.75488
		c0-3.53125-0.03125-7.03125-0.09277-10.50146c-0.0625-3.46924-0.09277-6.97021-0.09277-10.50146
		c0.18555-3.15967,0.74316-6.04053,1.67285-8.64307c0.92969-2.60205,2.26074-4.80029,3.99609-6.59814
		c1.7334-1.79639,3.87109-3.19043,6.41211-4.18213c2.54004-0.99023,5.51367-1.48682,8.92188-1.48682
		c4.21289,0,8.44141-0.03027,12.68555-0.09277c4.24316-0.06104,8.50391-0.09326,12.77832-0.09326
		c1.4873,0,2.70996-0.33838,3.6709-1.01465c0.95996-0.67676,1.6875-1.52344,2.18359-2.53857
		c0.49512-1.01465,0.74414-2.12305,0.74414-3.32373c0-1.19922-0.24902-2.30713-0.74414-3.32227
		c-0.49609-1.01514-1.22363-1.86182-2.18359-2.53809c-0.96094-0.67676-2.18359-1.0166-3.6709-1.0166
		c-7.80664,0-15.50488-0.01465-23.09375-0.04639c-7.58984-0.03076-15.31934-0.04688-23.1875-0.04688V9.12497H694.63831z"
    />
  </g>
</svg>
